<svg xmlns="http://www.w3.org/2000/svg" viewBox="0 0 352.26 135.34" preserveAspectRatio="none"><defs><style>.cls-1{fill:#8f967e;}.cls-2{fill:none;stroke:#5b4f4f;stroke-miterlimit:10;stroke-width:2px;}</style></defs><title>資產 2</title><g id="圖層_2" data-name="圖層 2"><g id="圖層_2-2" data-name="圖層 2">
<path class="cls-1" d="M351.1,130.17H6.47c-1.15,0-3.67-.49-4.74,0a2,2,0,0,1-.63,0l1.1,2.5V2.67L1.1,5.17H345.73c1.15,0,3.67.49,4.74,0a2,2,0,0,1,.63,0L350,2.67v130c0,3,2.2,3,2.2,0V2.67c0-.62-.14-2.5-1.1-2.5H6.47c-1.38,0-3.4-.38-4.74,0a2.66,2.66,0,0,1-.63,0C.14.17,0,2.09,0,2.67Q0,59.58,0,116.49v16.18c0,.62.14,2.5,1.1,2.5H345.73c1.36,0,3.42.39,4.74,0a2.58,2.58,0,0,1,.63,0C352.64,135.17,352.66,130.17,351.1,130.17Z"/>
<line class="cls-2" x1="11.1" y1="87.74" x2="341.1" y2="87.74"/></g></g></svg>